<mxfile host="app.diagrams.net" modified="2022-07-07T08:11:57.362Z" agent="5.0 (Macintosh)" etag="MZ4w6re3la9alSVUmG85" version="20.0.3" type="github">
  <diagram id="R2lEEEUBdFMjLlhIrx00" name="ドメインモデル図">
    <mxGraphModel dx="1963" dy="1820" grid="1" gridSize="10" guides="1" tooltips="1" connect="1" arrows="1" fold="1" page="1" pageScale="1" pageWidth="850" pageHeight="1100" math="0" shadow="0" extFonts="Permanent Marker^https://fonts.googleapis.com/css?family=Permanent+Marker">
      <root>
        <mxCell id="0" />
        <mxCell id="1" parent="0" />
        <mxCell id="LZkpbplSb4T8Yxe4WdQG-137" value="" style="rounded=0;whiteSpace=wrap;html=1;dashed=1;fillColor=none;" vertex="1" parent="1">
          <mxGeometry x="725" y="-252" width="255" height="282" as="geometry" />
        </mxCell>
        <mxCell id="LZkpbplSb4T8Yxe4WdQG-138" value="" style="rounded=0;whiteSpace=wrap;html=1;dashed=1;fillColor=none;" vertex="1" parent="1">
          <mxGeometry x="997.5" y="-252" width="252.5" height="232" as="geometry" />
        </mxCell>
        <mxCell id="LZkpbplSb4T8Yxe4WdQG-139" value="" style="rounded=0;whiteSpace=wrap;html=1;dashed=1;fillColor=none;" vertex="1" parent="1">
          <mxGeometry x="1260" y="-270" width="300" height="290" as="geometry" />
        </mxCell>
        <mxCell id="LZkpbplSb4T8Yxe4WdQG-136" value="" style="rounded=0;whiteSpace=wrap;html=1;dashed=1;fillColor=none;" vertex="1" parent="1">
          <mxGeometry x="470" y="-252" width="240" height="252" as="geometry" />
        </mxCell>
        <mxCell id="LZkpbplSb4T8Yxe4WdQG-128" value="" style="rounded=0;whiteSpace=wrap;html=1;dashed=1;fillColor=none;" vertex="1" parent="1">
          <mxGeometry x="410" y="50" width="275" height="300" as="geometry" />
        </mxCell>
        <mxCell id="LZkpbplSb4T8Yxe4WdQG-126" value="" style="rounded=0;whiteSpace=wrap;html=1;dashed=1;fillColor=none;" vertex="1" parent="1">
          <mxGeometry x="1330" y="48" width="315" height="220" as="geometry" />
        </mxCell>
        <mxCell id="LZkpbplSb4T8Yxe4WdQG-127" value="" style="rounded=0;whiteSpace=wrap;html=1;dashed=1;fillColor=none;" vertex="1" parent="1">
          <mxGeometry x="705" y="64" width="515" height="286" as="geometry" />
        </mxCell>
        <mxCell id="-lfu1qbJymrr4VfXlg2W-4" value="ユーザー" style="shape=umlActor;verticalLabelPosition=bottom;verticalAlign=top;html=1;outlineConnect=0;" parent="1" vertex="1">
          <mxGeometry x="-200" y="240" width="30" height="60" as="geometry" />
        </mxCell>
        <mxCell id="-lfu1qbJymrr4VfXlg2W-55" style="edgeStyle=orthogonalEdgeStyle;rounded=0;orthogonalLoop=1;jettySize=auto;html=1;entryX=0.522;entryY=1.025;entryDx=0;entryDy=0;endArrow=block;endFill=0;endSize=10;exitX=0.5;exitY=0;exitDx=0;exitDy=0;entryPerimeter=0;" parent="1" source="LZkpbplSb4T8Yxe4WdQG-28" target="LZkpbplSb4T8Yxe4WdQG-99" edge="1">
          <mxGeometry relative="1" as="geometry">
            <mxPoint x="780" y="128" as="sourcePoint" />
            <mxPoint x="540" y="-116" as="targetPoint" />
            <Array as="points">
              <mxPoint x="900" y="70" />
              <mxPoint x="584" y="70" />
            </Array>
          </mxGeometry>
        </mxCell>
        <mxCell id="-lfu1qbJymrr4VfXlg2W-22" value="メンバー" style="shape=umlActor;verticalLabelPosition=bottom;verticalAlign=top;html=1;outlineConnect=0;" parent="1" vertex="1">
          <mxGeometry x="-50" y="122" width="30" height="60" as="geometry" />
        </mxCell>
        <mxCell id="-lfu1qbJymrr4VfXlg2W-48" style="edgeStyle=orthogonalEdgeStyle;rounded=0;orthogonalLoop=1;jettySize=auto;html=1;endArrow=block;endFill=0;endSize=10;entryX=0.5;entryY=0;entryDx=0;entryDy=0;" parent="1" target="LZkpbplSb4T8Yxe4WdQG-65" edge="1">
          <mxGeometry relative="1" as="geometry">
            <mxPoint x="600" y="370" as="sourcePoint" />
            <mxPoint x="890" y="470" as="targetPoint" />
          </mxGeometry>
        </mxCell>
        <mxCell id="-lfu1qbJymrr4VfXlg2W-49" style="edgeStyle=orthogonalEdgeStyle;rounded=0;orthogonalLoop=1;jettySize=auto;html=1;endArrow=block;endFill=0;endSize=10;exitX=1.006;exitY=0.12;exitDx=0;exitDy=0;exitPerimeter=0;entryX=0.444;entryY=-0.013;entryDx=0;entryDy=0;entryPerimeter=0;" parent="1" source="LZkpbplSb4T8Yxe4WdQG-57" target="LZkpbplSb4T8Yxe4WdQG-61" edge="1">
          <mxGeometry relative="1" as="geometry">
            <mxPoint x="600" y="370" as="sourcePoint" />
            <mxPoint x="1050" y="410" as="targetPoint" />
            <Array as="points">
              <mxPoint x="1050" y="338" />
            </Array>
          </mxGeometry>
        </mxCell>
        <mxCell id="SwidQcsUc46jRZbSCklb-10" style="edgeStyle=orthogonalEdgeStyle;rounded=0;orthogonalLoop=1;jettySize=auto;html=1;endArrow=block;endFill=0;endSize=9;strokeWidth=1;exitX=1;exitY=0.113;exitDx=0;exitDy=0;exitPerimeter=0;" parent="1" source="LZkpbplSb4T8Yxe4WdQG-57" target="LZkpbplSb4T8Yxe4WdQG-69" edge="1">
          <mxGeometry relative="1" as="geometry">
            <mxPoint x="600" y="370" as="sourcePoint" />
            <mxPoint x="740" y="460" as="targetPoint" />
          </mxGeometry>
        </mxCell>
        <mxCell id="-lfu1qbJymrr4VfXlg2W-32" style="edgeStyle=orthogonalEdgeStyle;rounded=0;orthogonalLoop=1;jettySize=auto;html=1;endArrow=diamondThin;endFill=0;endSize=10;exitX=0.364;exitY=0.25;exitDx=0;exitDy=0;exitPerimeter=0;" parent="1" source="LZkpbplSb4T8Yxe4WdQG-129" target="-lfu1qbJymrr4VfXlg2W-22" edge="1">
          <mxGeometry relative="1" as="geometry">
            <mxPoint x="140" y="440" as="sourcePoint" />
          </mxGeometry>
        </mxCell>
        <mxCell id="SwidQcsUc46jRZbSCklb-4" style="edgeStyle=orthogonalEdgeStyle;rounded=0;orthogonalLoop=1;jettySize=auto;html=1;entryX=0.467;entryY=1;entryDx=0;entryDy=0;endArrow=diamondThin;endFill=0;endSize=9;entryPerimeter=0;" parent="1" source="SwidQcsUc46jRZbSCklb-3" target="LZkpbplSb4T8Yxe4WdQG-60" edge="1">
          <mxGeometry relative="1" as="geometry">
            <mxPoint x="540" y="400" as="targetPoint" />
          </mxGeometry>
        </mxCell>
        <mxCell id="SwidQcsUc46jRZbSCklb-3" value="内容" style="rounded=0;whiteSpace=wrap;html=1;" parent="1" vertex="1">
          <mxGeometry x="480" y="560" width="120" height="60" as="geometry" />
        </mxCell>
        <mxCell id="LZkpbplSb4T8Yxe4WdQG-1" value="メンバー(member)&#xa;" style="swimlane;fontStyle=1;align=center;verticalAlign=top;childLayout=stackLayout;horizontal=1;startSize=26;horizontalStack=0;resizeParent=1;resizeParentMax=0;resizeLast=0;collapsible=1;marginBottom=0;" vertex="1" parent="1">
          <mxGeometry x="160" y="94" width="160" height="116" as="geometry" />
        </mxCell>
        <mxCell id="LZkpbplSb4T8Yxe4WdQG-2" value="+ userId: String&#xa;+ userName:String&#xa;+groupIds: List&lt;String&gt;&#xa;&#xa;&#xa;" style="text;strokeColor=none;fillColor=none;align=left;verticalAlign=top;spacingLeft=4;spacingRight=4;overflow=hidden;rotatable=0;points=[[0,0.5],[1,0.5]];portConstraint=eastwest;" vertex="1" parent="LZkpbplSb4T8Yxe4WdQG-1">
          <mxGeometry y="26" width="160" height="44" as="geometry" />
        </mxCell>
        <mxCell id="LZkpbplSb4T8Yxe4WdQG-3" value="" style="line;strokeWidth=1;fillColor=none;align=left;verticalAlign=middle;spacingTop=-1;spacingLeft=3;spacingRight=3;rotatable=0;labelPosition=right;points=[];portConstraint=eastwest;" vertex="1" parent="LZkpbplSb4T8Yxe4WdQG-1">
          <mxGeometry y="70" width="160" height="20" as="geometry" />
        </mxCell>
        <mxCell id="LZkpbplSb4T8Yxe4WdQG-4" value="+ findIllegal():void" style="text;strokeColor=none;fillColor=none;align=left;verticalAlign=top;spacingLeft=4;spacingRight=4;overflow=hidden;rotatable=0;points=[[0,0.5],[1,0.5]];portConstraint=eastwest;" vertex="1" parent="LZkpbplSb4T8Yxe4WdQG-1">
          <mxGeometry y="90" width="160" height="26" as="geometry" />
        </mxCell>
        <mxCell id="LZkpbplSb4T8Yxe4WdQG-14" value="グループ(Group)" style="swimlane;fontStyle=1;align=center;verticalAlign=top;childLayout=stackLayout;horizontal=1;startSize=26;horizontalStack=0;resizeParent=1;resizeParentMax=0;resizeLast=0;collapsible=1;marginBottom=0;" vertex="1" parent="1">
          <mxGeometry x="490" y="94" width="160" height="250" as="geometry" />
        </mxCell>
        <mxCell id="LZkpbplSb4T8Yxe4WdQG-15" value="+ groupId:String&#xa;+ groupName:String&#xa;+ memberId : String&#xa;+ password : String&#xa;+ruleIds : List&lt;String&gt;&#xa;&#xa;&#xa;&#xa;&#xa;" style="text;strokeColor=none;fillColor=none;align=left;verticalAlign=top;spacingLeft=4;spacingRight=4;overflow=hidden;rotatable=0;points=[[0,0.5],[1,0.5]];portConstraint=eastwest;" vertex="1" parent="LZkpbplSb4T8Yxe4WdQG-14">
          <mxGeometry y="26" width="160" height="84" as="geometry" />
        </mxCell>
        <mxCell id="LZkpbplSb4T8Yxe4WdQG-16" value="" style="line;strokeWidth=1;fillColor=none;align=left;verticalAlign=middle;spacingTop=-1;spacingLeft=3;spacingRight=3;rotatable=0;labelPosition=right;points=[];portConstraint=eastwest;" vertex="1" parent="LZkpbplSb4T8Yxe4WdQG-14">
          <mxGeometry y="110" width="160" height="8" as="geometry" />
        </mxCell>
        <mxCell id="LZkpbplSb4T8Yxe4WdQG-17" value="+ join : void&#xa;+ removeMember : void&#xa;+ regeneratePassword : void &#xa;+ addRule : void&#xa;+ removeRule : void&#xa;+ getApproveRule: RuleList&#xa;+ getProposedRule: RuleList&#xa;+ getDenyRule : RuleList&#xa;&#xa;" style="text;strokeColor=none;fillColor=none;align=left;verticalAlign=top;spacingLeft=4;spacingRight=4;overflow=hidden;rotatable=0;points=[[0,0.5],[1,0.5]];portConstraint=eastwest;" vertex="1" parent="LZkpbplSb4T8Yxe4WdQG-14">
          <mxGeometry y="118" width="160" height="132" as="geometry" />
        </mxCell>
        <mxCell id="LZkpbplSb4T8Yxe4WdQG-100" style="edgeStyle=orthogonalEdgeStyle;rounded=0;orthogonalLoop=1;jettySize=auto;html=1;entryX=0.5;entryY=0.992;entryDx=0;entryDy=0;entryPerimeter=0;endArrow=block;endFill=0;" edge="1" parent="1" source="LZkpbplSb4T8Yxe4WdQG-28" target="LZkpbplSb4T8Yxe4WdQG-87">
          <mxGeometry relative="1" as="geometry" />
        </mxCell>
        <mxCell id="LZkpbplSb4T8Yxe4WdQG-102" style="edgeStyle=orthogonalEdgeStyle;rounded=0;orthogonalLoop=1;jettySize=auto;html=1;entryX=0.504;entryY=1;entryDx=0;entryDy=0;entryPerimeter=0;endArrow=block;endFill=0;" edge="1" parent="1" source="LZkpbplSb4T8Yxe4WdQG-28" target="LZkpbplSb4T8Yxe4WdQG-91">
          <mxGeometry relative="1" as="geometry">
            <Array as="points">
              <mxPoint x="900" y="30" />
              <mxPoint x="1131" y="30" />
            </Array>
          </mxGeometry>
        </mxCell>
        <mxCell id="LZkpbplSb4T8Yxe4WdQG-103" style="edgeStyle=orthogonalEdgeStyle;rounded=0;orthogonalLoop=1;jettySize=auto;html=1;entryX=0.563;entryY=1.008;entryDx=0;entryDy=0;entryPerimeter=0;endArrow=block;endFill=0;" edge="1" parent="1" source="LZkpbplSb4T8Yxe4WdQG-28" target="LZkpbplSb4T8Yxe4WdQG-95">
          <mxGeometry relative="1" as="geometry">
            <Array as="points">
              <mxPoint x="900" y="30" />
              <mxPoint x="1415" y="30" />
            </Array>
          </mxGeometry>
        </mxCell>
        <mxCell id="LZkpbplSb4T8Yxe4WdQG-28" value="ルール(Rule)" style="swimlane;fontStyle=1;align=center;verticalAlign=top;childLayout=stackLayout;horizontal=1;startSize=26;horizontalStack=0;resizeParent=1;resizeParentMax=0;resizeLast=0;collapsible=1;marginBottom=0;" vertex="1" parent="1">
          <mxGeometry x="780" y="100" width="240" height="218" as="geometry" />
        </mxCell>
        <mxCell id="LZkpbplSb4T8Yxe4WdQG-29" value="+ ruleId: String&#xa;+ discriptions : String&#xa;+ level : Level&#xa;+ commentIds : ArrayList&lt;String&gt;&#xa;+ status : String&#xa;&#xa;&#xa;&#xa;&#xa;" style="text;strokeColor=none;fillColor=none;align=left;verticalAlign=top;spacingLeft=4;spacingRight=4;overflow=hidden;rotatable=0;points=[[0,0.5],[1,0.5]];portConstraint=eastwest;" vertex="1" parent="LZkpbplSb4T8Yxe4WdQG-28">
          <mxGeometry y="26" width="240" height="104" as="geometry" />
        </mxCell>
        <mxCell id="LZkpbplSb4T8Yxe4WdQG-30" value="" style="line;strokeWidth=1;fillColor=none;align=left;verticalAlign=middle;spacingTop=-1;spacingLeft=3;spacingRight=3;rotatable=0;labelPosition=right;points=[];portConstraint=eastwest;" vertex="1" parent="LZkpbplSb4T8Yxe4WdQG-28">
          <mxGeometry y="130" width="240" height="8" as="geometry" />
        </mxCell>
        <mxCell id="LZkpbplSb4T8Yxe4WdQG-31" value="+ updateDiscription : void&#xa;+ addComment : void&#xa;&#xa;&#xa;&#xa;&#xa; " style="text;strokeColor=none;fillColor=none;align=left;verticalAlign=top;spacingLeft=4;spacingRight=4;overflow=hidden;rotatable=0;points=[[0,0.5],[1,0.5]];portConstraint=eastwest;" vertex="1" parent="LZkpbplSb4T8Yxe4WdQG-28">
          <mxGeometry y="138" width="240" height="80" as="geometry" />
        </mxCell>
        <mxCell id="LZkpbplSb4T8Yxe4WdQG-44" value="Comment" style="swimlane;fontStyle=1;align=center;verticalAlign=top;childLayout=stackLayout;horizontal=1;startSize=26;horizontalStack=0;resizeParent=1;resizeParentMax=0;resizeLast=0;collapsible=1;marginBottom=0;" vertex="1" parent="1">
          <mxGeometry x="1397.5" y="72" width="180" height="188" as="geometry" />
        </mxCell>
        <mxCell id="LZkpbplSb4T8Yxe4WdQG-45" value="+ CommentId: String&#xa;+ content : String&#xa;+ MemberId: String&#xa;+ writeTime : Timestamp&#xa;&#xa;" style="text;strokeColor=none;fillColor=none;align=left;verticalAlign=top;spacingLeft=4;spacingRight=4;overflow=hidden;rotatable=0;points=[[0,0.5],[1,0.5]];portConstraint=eastwest;" vertex="1" parent="LZkpbplSb4T8Yxe4WdQG-44">
          <mxGeometry y="26" width="180" height="94" as="geometry" />
        </mxCell>
        <mxCell id="LZkpbplSb4T8Yxe4WdQG-46" value="" style="line;strokeWidth=1;fillColor=none;align=left;verticalAlign=middle;spacingTop=-1;spacingLeft=3;spacingRight=3;rotatable=0;labelPosition=right;points=[];portConstraint=eastwest;" vertex="1" parent="LZkpbplSb4T8Yxe4WdQG-44">
          <mxGeometry y="120" width="180" height="8" as="geometry" />
        </mxCell>
        <mxCell id="LZkpbplSb4T8Yxe4WdQG-47" value="+ editComment : void" style="text;strokeColor=none;fillColor=none;align=left;verticalAlign=top;spacingLeft=4;spacingRight=4;overflow=hidden;rotatable=0;points=[[0,0.5],[1,0.5]];portConstraint=eastwest;" vertex="1" parent="LZkpbplSb4T8Yxe4WdQG-44">
          <mxGeometry y="128" width="180" height="60" as="geometry" />
        </mxCell>
        <mxCell id="LZkpbplSb4T8Yxe4WdQG-48" value="レベル(Level)" style="swimlane;fontStyle=1;align=center;verticalAlign=top;childLayout=stackLayout;horizontal=1;startSize=26;horizontalStack=0;resizeParent=1;resizeParentMax=0;resizeLast=0;collapsible=1;marginBottom=0;" vertex="1" parent="1">
          <mxGeometry x="1030" y="210" width="180" height="90" as="geometry" />
        </mxCell>
        <mxCell id="LZkpbplSb4T8Yxe4WdQG-49" value="+ value" style="text;strokeColor=none;fillColor=none;align=left;verticalAlign=top;spacingLeft=4;spacingRight=4;overflow=hidden;rotatable=0;points=[[0,0.5],[1,0.5]];portConstraint=eastwest;" vertex="1" parent="LZkpbplSb4T8Yxe4WdQG-48">
          <mxGeometry y="26" width="180" height="34" as="geometry" />
        </mxCell>
        <mxCell id="LZkpbplSb4T8Yxe4WdQG-50" value="" style="line;strokeWidth=1;fillColor=none;align=left;verticalAlign=middle;spacingTop=-1;spacingLeft=3;spacingRight=3;rotatable=0;labelPosition=right;points=[];portConstraint=eastwest;" vertex="1" parent="LZkpbplSb4T8Yxe4WdQG-48">
          <mxGeometry y="60" width="180" height="8" as="geometry" />
        </mxCell>
        <mxCell id="LZkpbplSb4T8Yxe4WdQG-51" value="getValue&#xa;&#xa;&#xa; " style="text;strokeColor=none;fillColor=none;align=left;verticalAlign=top;spacingLeft=4;spacingRight=4;overflow=hidden;rotatable=0;points=[[0,0.5],[1,0.5]];portConstraint=eastwest;" vertex="1" parent="LZkpbplSb4T8Yxe4WdQG-48">
          <mxGeometry y="68" width="180" height="22" as="geometry" />
        </mxCell>
        <mxCell id="LZkpbplSb4T8Yxe4WdQG-57" value="通知(Notification)" style="swimlane;fontStyle=1;align=center;verticalAlign=top;childLayout=stackLayout;horizontal=1;startSize=26;horizontalStack=0;resizeParent=1;resizeParentMax=0;resizeLast=0;collapsible=1;marginBottom=0;" vertex="1" parent="1">
          <mxGeometry x="440" y="365" width="180" height="150" as="geometry" />
        </mxCell>
        <mxCell id="LZkpbplSb4T8Yxe4WdQG-58" value="+ notifyId : String&#xa;+ ruleId: String&#xa;+ contents : Contents  " style="text;strokeColor=none;fillColor=none;align=left;verticalAlign=top;spacingLeft=4;spacingRight=4;overflow=hidden;rotatable=0;points=[[0,0.5],[1,0.5]];portConstraint=eastwest;" vertex="1" parent="LZkpbplSb4T8Yxe4WdQG-57">
          <mxGeometry y="26" width="180" height="74" as="geometry" />
        </mxCell>
        <mxCell id="LZkpbplSb4T8Yxe4WdQG-59" value="" style="line;strokeWidth=1;fillColor=none;align=left;verticalAlign=middle;spacingTop=-1;spacingLeft=3;spacingRight=3;rotatable=0;labelPosition=right;points=[];portConstraint=eastwest;" vertex="1" parent="LZkpbplSb4T8Yxe4WdQG-57">
          <mxGeometry y="100" width="180" height="8" as="geometry" />
        </mxCell>
        <mxCell id="LZkpbplSb4T8Yxe4WdQG-60" value="+ notify : void&#xa;+ &#xa;" style="text;strokeColor=none;fillColor=none;align=left;verticalAlign=top;spacingLeft=4;spacingRight=4;overflow=hidden;rotatable=0;points=[[0,0.5],[1,0.5]];portConstraint=eastwest;" vertex="1" parent="LZkpbplSb4T8Yxe4WdQG-57">
          <mxGeometry y="108" width="180" height="42" as="geometry" />
        </mxCell>
        <mxCell id="LZkpbplSb4T8Yxe4WdQG-61" value="違反通知(IllegalNotification)" style="swimlane;fontStyle=1;align=center;verticalAlign=top;childLayout=stackLayout;horizontal=1;startSize=26;horizontalStack=0;resizeParent=1;resizeParentMax=0;resizeLast=0;collapsible=1;marginBottom=0;" vertex="1" parent="1">
          <mxGeometry x="1070" y="430" width="180" height="130" as="geometry" />
        </mxCell>
        <mxCell id="LZkpbplSb4T8Yxe4WdQG-62" value="+ notifyId : String&#xa;+ ruleId: String&#xa;+ contents : Contents  " style="text;strokeColor=none;fillColor=none;align=left;verticalAlign=top;spacingLeft=4;spacingRight=4;overflow=hidden;rotatable=0;points=[[0,0.5],[1,0.5]];portConstraint=eastwest;" vertex="1" parent="LZkpbplSb4T8Yxe4WdQG-61">
          <mxGeometry y="26" width="180" height="54" as="geometry" />
        </mxCell>
        <mxCell id="LZkpbplSb4T8Yxe4WdQG-63" value="" style="line;strokeWidth=1;fillColor=none;align=left;verticalAlign=middle;spacingTop=-1;spacingLeft=3;spacingRight=3;rotatable=0;labelPosition=right;points=[];portConstraint=eastwest;" vertex="1" parent="LZkpbplSb4T8Yxe4WdQG-61">
          <mxGeometry y="80" width="180" height="8" as="geometry" />
        </mxCell>
        <mxCell id="LZkpbplSb4T8Yxe4WdQG-64" value="+ notify : void&#xa;+ &#xa;" style="text;strokeColor=none;fillColor=none;align=left;verticalAlign=top;spacingLeft=4;spacingRight=4;overflow=hidden;rotatable=0;points=[[0,0.5],[1,0.5]];portConstraint=eastwest;" vertex="1" parent="LZkpbplSb4T8Yxe4WdQG-61">
          <mxGeometry y="88" width="180" height="42" as="geometry" />
        </mxCell>
        <mxCell id="LZkpbplSb4T8Yxe4WdQG-65" value="承認通知(ApproveNotification)" style="swimlane;fontStyle=1;align=center;verticalAlign=top;childLayout=stackLayout;horizontal=1;startSize=26;horizontalStack=0;resizeParent=1;resizeParentMax=0;resizeLast=0;collapsible=1;marginBottom=0;" vertex="1" parent="1">
          <mxGeometry x="870" y="450" width="180" height="130" as="geometry" />
        </mxCell>
        <mxCell id="LZkpbplSb4T8Yxe4WdQG-66" value="+ notifyId : String&#xa;+ ruleId: String&#xa;+ contents : Contents  " style="text;strokeColor=none;fillColor=none;align=left;verticalAlign=top;spacingLeft=4;spacingRight=4;overflow=hidden;rotatable=0;points=[[0,0.5],[1,0.5]];portConstraint=eastwest;" vertex="1" parent="LZkpbplSb4T8Yxe4WdQG-65">
          <mxGeometry y="26" width="180" height="54" as="geometry" />
        </mxCell>
        <mxCell id="LZkpbplSb4T8Yxe4WdQG-67" value="" style="line;strokeWidth=1;fillColor=none;align=left;verticalAlign=middle;spacingTop=-1;spacingLeft=3;spacingRight=3;rotatable=0;labelPosition=right;points=[];portConstraint=eastwest;" vertex="1" parent="LZkpbplSb4T8Yxe4WdQG-65">
          <mxGeometry y="80" width="180" height="8" as="geometry" />
        </mxCell>
        <mxCell id="LZkpbplSb4T8Yxe4WdQG-68" value="+ notify : void&#xa;+ &#xa;" style="text;strokeColor=none;fillColor=none;align=left;verticalAlign=top;spacingLeft=4;spacingRight=4;overflow=hidden;rotatable=0;points=[[0,0.5],[1,0.5]];portConstraint=eastwest;" vertex="1" parent="LZkpbplSb4T8Yxe4WdQG-65">
          <mxGeometry y="88" width="180" height="42" as="geometry" />
        </mxCell>
        <mxCell id="LZkpbplSb4T8Yxe4WdQG-69" value="承認通知(ProposeNotification)" style="swimlane;fontStyle=1;align=center;verticalAlign=top;childLayout=stackLayout;horizontal=1;startSize=26;horizontalStack=0;resizeParent=1;resizeParentMax=0;resizeLast=0;collapsible=1;marginBottom=0;" vertex="1" parent="1">
          <mxGeometry x="670" y="430" width="180" height="130" as="geometry" />
        </mxCell>
        <mxCell id="LZkpbplSb4T8Yxe4WdQG-70" value="+ notifyId : String&#xa;+ ruleId: String&#xa;+ contents : Contents  " style="text;strokeColor=none;fillColor=none;align=left;verticalAlign=top;spacingLeft=4;spacingRight=4;overflow=hidden;rotatable=0;points=[[0,0.5],[1,0.5]];portConstraint=eastwest;" vertex="1" parent="LZkpbplSb4T8Yxe4WdQG-69">
          <mxGeometry y="26" width="180" height="54" as="geometry" />
        </mxCell>
        <mxCell id="LZkpbplSb4T8Yxe4WdQG-71" value="" style="line;strokeWidth=1;fillColor=none;align=left;verticalAlign=middle;spacingTop=-1;spacingLeft=3;spacingRight=3;rotatable=0;labelPosition=right;points=[];portConstraint=eastwest;" vertex="1" parent="LZkpbplSb4T8Yxe4WdQG-69">
          <mxGeometry y="80" width="180" height="8" as="geometry" />
        </mxCell>
        <mxCell id="LZkpbplSb4T8Yxe4WdQG-72" value="+ notify : void&#xa;+ &#xa;" style="text;strokeColor=none;fillColor=none;align=left;verticalAlign=top;spacingLeft=4;spacingRight=4;overflow=hidden;rotatable=0;points=[[0,0.5],[1,0.5]];portConstraint=eastwest;" vertex="1" parent="LZkpbplSb4T8Yxe4WdQG-69">
          <mxGeometry y="88" width="180" height="42" as="geometry" />
        </mxCell>
        <mxCell id="LZkpbplSb4T8Yxe4WdQG-73" value="廃止通知(AbolitionNotification)" style="swimlane;fontStyle=1;align=center;verticalAlign=top;childLayout=stackLayout;horizontal=1;startSize=26;horizontalStack=0;resizeParent=1;resizeParentMax=0;resizeLast=0;collapsible=1;marginBottom=0;" vertex="1" parent="1">
          <mxGeometry x="1275" y="420" width="180" height="130" as="geometry" />
        </mxCell>
        <mxCell id="LZkpbplSb4T8Yxe4WdQG-74" value="+ notifyId : String&#xa;+ ruleId: String&#xa;+ contents : Contents  " style="text;strokeColor=none;fillColor=none;align=left;verticalAlign=top;spacingLeft=4;spacingRight=4;overflow=hidden;rotatable=0;points=[[0,0.5],[1,0.5]];portConstraint=eastwest;" vertex="1" parent="LZkpbplSb4T8Yxe4WdQG-73">
          <mxGeometry y="26" width="180" height="54" as="geometry" />
        </mxCell>
        <mxCell id="LZkpbplSb4T8Yxe4WdQG-75" value="" style="line;strokeWidth=1;fillColor=none;align=left;verticalAlign=middle;spacingTop=-1;spacingLeft=3;spacingRight=3;rotatable=0;labelPosition=right;points=[];portConstraint=eastwest;" vertex="1" parent="LZkpbplSb4T8Yxe4WdQG-73">
          <mxGeometry y="80" width="180" height="8" as="geometry" />
        </mxCell>
        <mxCell id="LZkpbplSb4T8Yxe4WdQG-76" value="+ notify : void&#xa;+ &#xa;" style="text;strokeColor=none;fillColor=none;align=left;verticalAlign=top;spacingLeft=4;spacingRight=4;overflow=hidden;rotatable=0;points=[[0,0.5],[1,0.5]];portConstraint=eastwest;" vertex="1" parent="LZkpbplSb4T8Yxe4WdQG-73">
          <mxGeometry y="88" width="180" height="42" as="geometry" />
        </mxCell>
        <mxCell id="LZkpbplSb4T8Yxe4WdQG-78" style="edgeStyle=orthogonalEdgeStyle;rounded=0;orthogonalLoop=1;jettySize=auto;html=1;endArrow=diamondThin;endFill=0;endSize=9;exitX=0.5;exitY=0;exitDx=0;exitDy=0;entryX=1;entryY=0.5;entryDx=0;entryDy=0;" edge="1" parent="1" source="LZkpbplSb4T8Yxe4WdQG-48" target="LZkpbplSb4T8Yxe4WdQG-29">
          <mxGeometry relative="1" as="geometry">
            <mxPoint x="785.9200000000001" y="129.95000000000005" as="sourcePoint" />
            <mxPoint x="700.96" y="157.03999999999996" as="targetPoint" />
          </mxGeometry>
        </mxCell>
        <mxCell id="LZkpbplSb4T8Yxe4WdQG-83" style="edgeStyle=orthogonalEdgeStyle;rounded=0;orthogonalLoop=1;jettySize=auto;html=1;endArrow=diamondThin;endFill=0;endSize=9;exitX=-0.017;exitY=0.691;exitDx=0;exitDy=0;exitPerimeter=0;entryX=1.004;entryY=0.106;entryDx=0;entryDy=0;entryPerimeter=0;" edge="1" parent="1" source="LZkpbplSb4T8Yxe4WdQG-45" target="LZkpbplSb4T8Yxe4WdQG-28">
          <mxGeometry relative="1" as="geometry">
            <mxPoint x="1150" y="250" as="sourcePoint" />
            <mxPoint x="1450" y="165" as="targetPoint" />
          </mxGeometry>
        </mxCell>
        <mxCell id="LZkpbplSb4T8Yxe4WdQG-84" value="承認ルール(AppovedRule)" style="swimlane;fontStyle=1;align=center;verticalAlign=top;childLayout=stackLayout;horizontal=1;startSize=26;horizontalStack=0;resizeParent=1;resizeParentMax=0;resizeLast=0;collapsible=1;marginBottom=0;" vertex="1" parent="1">
          <mxGeometry x="730" y="-224" width="240" height="260" as="geometry" />
        </mxCell>
        <mxCell id="LZkpbplSb4T8Yxe4WdQG-85" value="+ ruleId: String&#xa;+ discriptions : String&#xa;+ level : Level&#xa;+ commentIds : ArrayList&lt;String&gt;&#xa;+ status : String&#xa;+ approveTime : Timestamp&#xa;&#xa;&#xa;&#xa;" style="text;strokeColor=none;fillColor=none;align=left;verticalAlign=top;spacingLeft=4;spacingRight=4;overflow=hidden;rotatable=0;points=[[0,0.5],[1,0.5]];portConstraint=eastwest;" vertex="1" parent="LZkpbplSb4T8Yxe4WdQG-84">
          <mxGeometry y="26" width="240" height="104" as="geometry" />
        </mxCell>
        <mxCell id="LZkpbplSb4T8Yxe4WdQG-86" value="" style="line;strokeWidth=1;fillColor=none;align=left;verticalAlign=middle;spacingTop=-1;spacingLeft=3;spacingRight=3;rotatable=0;labelPosition=right;points=[];portConstraint=eastwest;" vertex="1" parent="LZkpbplSb4T8Yxe4WdQG-84">
          <mxGeometry y="130" width="240" height="8" as="geometry" />
        </mxCell>
        <mxCell id="LZkpbplSb4T8Yxe4WdQG-87" value="+ updateDiscription : void&#xa;+ abolition : AbolitionNotification&#xa;+ encourage : encourageNotification&#xa;+ findIllegal : IllegalNotification&#xa;+ addComment : void&#xa; " style="text;strokeColor=none;fillColor=none;align=left;verticalAlign=top;spacingLeft=4;spacingRight=4;overflow=hidden;rotatable=0;points=[[0,0.5],[1,0.5]];portConstraint=eastwest;" vertex="1" parent="LZkpbplSb4T8Yxe4WdQG-84">
          <mxGeometry y="138" width="240" height="122" as="geometry" />
        </mxCell>
        <mxCell id="LZkpbplSb4T8Yxe4WdQG-88" value="否認ルール(DeniedRule)" style="swimlane;fontStyle=1;align=center;verticalAlign=top;childLayout=stackLayout;horizontal=1;startSize=26;horizontalStack=0;resizeParent=1;resizeParentMax=0;resizeLast=0;collapsible=1;marginBottom=0;" vertex="1" parent="1">
          <mxGeometry x="1000" y="-224" width="240" height="190" as="geometry" />
        </mxCell>
        <mxCell id="LZkpbplSb4T8Yxe4WdQG-89" value="+ ruleId: String&#xa;+ discriptions : String&#xa;+ level : Level&#xa;+ commentIds : ArrayList&lt;String&gt;+ status : String&#xa;+ denyTime : Timestamp&#xa;&#xa;" style="text;strokeColor=none;fillColor=none;align=left;verticalAlign=top;spacingLeft=4;spacingRight=4;overflow=hidden;rotatable=0;points=[[0,0.5],[1,0.5]];portConstraint=eastwest;" vertex="1" parent="LZkpbplSb4T8Yxe4WdQG-88">
          <mxGeometry y="26" width="240" height="104" as="geometry" />
        </mxCell>
        <mxCell id="LZkpbplSb4T8Yxe4WdQG-90" value="" style="line;strokeWidth=1;fillColor=none;align=left;verticalAlign=middle;spacingTop=-1;spacingLeft=3;spacingRight=3;rotatable=0;labelPosition=right;points=[];portConstraint=eastwest;" vertex="1" parent="LZkpbplSb4T8Yxe4WdQG-88">
          <mxGeometry y="130" width="240" height="8" as="geometry" />
        </mxCell>
        <mxCell id="LZkpbplSb4T8Yxe4WdQG-91" value="+ updateDiscription : void&#xa;+ addComment : void " style="text;strokeColor=none;fillColor=none;align=left;verticalAlign=top;spacingLeft=4;spacingRight=4;overflow=hidden;rotatable=0;points=[[0,0.5],[1,0.5]];portConstraint=eastwest;" vertex="1" parent="LZkpbplSb4T8Yxe4WdQG-88">
          <mxGeometry y="138" width="240" height="52" as="geometry" />
        </mxCell>
        <mxCell id="LZkpbplSb4T8Yxe4WdQG-92" value="廃止ルール(AbolitionRule)" style="swimlane;fontStyle=1;align=center;verticalAlign=top;childLayout=stackLayout;horizontal=1;startSize=26;horizontalStack=0;resizeParent=1;resizeParentMax=0;resizeLast=0;collapsible=1;marginBottom=0;" vertex="1" parent="1">
          <mxGeometry x="1280" y="-224" width="240" height="260" as="geometry" />
        </mxCell>
        <mxCell id="LZkpbplSb4T8Yxe4WdQG-93" value="+ ruleId: String&#xa;+ discriptions : String&#xa;+ level : Level&#xa;+ commentIds : ArrayList&lt;String&gt;&#xa;+ status : String&#xa;+ abolishTimestamp " style="text;strokeColor=none;fillColor=none;align=left;verticalAlign=top;spacingLeft=4;spacingRight=4;overflow=hidden;rotatable=0;points=[[0,0.5],[1,0.5]];portConstraint=eastwest;" vertex="1" parent="LZkpbplSb4T8Yxe4WdQG-92">
          <mxGeometry y="26" width="240" height="104" as="geometry" />
        </mxCell>
        <mxCell id="LZkpbplSb4T8Yxe4WdQG-94" value="" style="line;strokeWidth=1;fillColor=none;align=left;verticalAlign=middle;spacingTop=-1;spacingLeft=3;spacingRight=3;rotatable=0;labelPosition=right;points=[];portConstraint=eastwest;" vertex="1" parent="LZkpbplSb4T8Yxe4WdQG-92">
          <mxGeometry y="130" width="240" height="8" as="geometry" />
        </mxCell>
        <mxCell id="LZkpbplSb4T8Yxe4WdQG-95" value="+ updateDiscription : void&#xa;+ resuggest : ProposedRule&#xa;+ addComment : void" style="text;strokeColor=none;fillColor=none;align=left;verticalAlign=top;spacingLeft=4;spacingRight=4;overflow=hidden;rotatable=0;points=[[0,0.5],[1,0.5]];portConstraint=eastwest;" vertex="1" parent="LZkpbplSb4T8Yxe4WdQG-92">
          <mxGeometry y="138" width="240" height="122" as="geometry" />
        </mxCell>
        <mxCell id="LZkpbplSb4T8Yxe4WdQG-96" value="提案ルール(ProposedRule)" style="swimlane;fontStyle=1;align=center;verticalAlign=top;childLayout=stackLayout;horizontal=1;startSize=24;horizontalStack=0;resizeParent=1;resizeParentMax=0;resizeLast=0;collapsible=1;marginBottom=0;" vertex="1" parent="1">
          <mxGeometry x="490" y="-223" width="210" height="210" as="geometry">
            <mxRectangle x="450" y="-180" width="180" height="30" as="alternateBounds" />
          </mxGeometry>
        </mxCell>
        <mxCell id="LZkpbplSb4T8Yxe4WdQG-97" value="+ ruleId: String&#xa;+ discriptions : String&#xa;+ level : Level&#xa;+ commentIds : ArrayList&lt;String&gt;&#xa;+ status : String&#xa;+ proposalTime : Timestamp&#xa;&#xa;&#xa;&#xa;" style="text;strokeColor=none;fillColor=none;align=left;verticalAlign=top;spacingLeft=4;spacingRight=4;overflow=hidden;rotatable=0;points=[[0,0.5],[1,0.5]];portConstraint=eastwest;" vertex="1" parent="LZkpbplSb4T8Yxe4WdQG-96">
          <mxGeometry y="24" width="210" height="96" as="geometry" />
        </mxCell>
        <mxCell id="LZkpbplSb4T8Yxe4WdQG-98" value="" style="line;strokeWidth=1;fillColor=none;align=left;verticalAlign=middle;spacingTop=-1;spacingLeft=3;spacingRight=3;rotatable=0;labelPosition=right;points=[];portConstraint=eastwest;" vertex="1" parent="LZkpbplSb4T8Yxe4WdQG-96">
          <mxGeometry y="120" width="210" height="8" as="geometry" />
        </mxCell>
        <mxCell id="LZkpbplSb4T8Yxe4WdQG-99" value="+ updateDiscription : void&#xa;+ approve: approveNotification&#xa;+ deny : void&#xa;+ abolition : AbolitionNotification&#xa;+ addComment : void&#xa;" style="text;strokeColor=none;fillColor=none;align=left;verticalAlign=top;spacingLeft=4;spacingRight=4;overflow=hidden;rotatable=0;points=[[0,0.5],[1,0.5]];portConstraint=eastwest;" vertex="1" parent="LZkpbplSb4T8Yxe4WdQG-96">
          <mxGeometry y="128" width="210" height="82" as="geometry" />
        </mxCell>
        <mxCell id="LZkpbplSb4T8Yxe4WdQG-124" style="edgeStyle=orthogonalEdgeStyle;rounded=0;orthogonalLoop=1;jettySize=auto;html=1;entryX=0;entryY=0.5;entryDx=0;entryDy=0;endArrow=classic;endFill=1;" edge="1" parent="1" source="LZkpbplSb4T8Yxe4WdQG-15" target="LZkpbplSb4T8Yxe4WdQG-29">
          <mxGeometry relative="1" as="geometry" />
        </mxCell>
        <mxCell id="LZkpbplSb4T8Yxe4WdQG-125" style="edgeStyle=orthogonalEdgeStyle;rounded=0;orthogonalLoop=1;jettySize=auto;html=1;entryX=0;entryY=0.095;entryDx=0;entryDy=0;entryPerimeter=0;endArrow=classic;endFill=1;" edge="1" parent="1" source="LZkpbplSb4T8Yxe4WdQG-2" target="LZkpbplSb4T8Yxe4WdQG-14">
          <mxGeometry relative="1" as="geometry" />
        </mxCell>
        <mxCell id="LZkpbplSb4T8Yxe4WdQG-129" value="" style="rounded=0;whiteSpace=wrap;html=1;dashed=1;fillColor=none;" vertex="1" parent="1">
          <mxGeometry x="80" y="50" width="275" height="240" as="geometry" />
        </mxCell>
      </root>
    </mxGraphModel>
  </diagram>
</mxfile>
